<?xml version="1.0" encoding="utf-8"?>
<svg xmlns="http://www.w3.org/2000/svg" xmlns:xlink="http://www.w3.org/1999/xlink" width="600" height="400" viewBox="0 0 2400 1600">
<defs>
  <clipPath id="clip260">
    <rect x="0" y="0" width="2400" height="1600"/>
  </clipPath>
</defs>
<path clip-path="url(#clip260)" d="
M0 1600 L2400 1600 L2400 0 L0 0  Z
  " fill="#ffffff" fill-rule="evenodd" fill-opacity="1"/>
<defs>
  <clipPath id="clip261">
    <rect x="480" y="0" width="1681" height="1600"/>
  </clipPath>
</defs>
<path clip-path="url(#clip260)" d="
M178.867 1486.45 L2352.76 1486.45 L2352.76 123.472 L178.867 123.472  Z
  " fill="#ffffff" fill-rule="evenodd" fill-opacity="1"/>
<defs>
  <clipPath id="clip262">
    <rect x="178" y="123" width="2175" height="1364"/>
  </clipPath>
</defs>
<polyline clip-path="url(#clip262)" style="stroke:#000000; stroke-linecap:butt; stroke-linejoin:round; stroke-width:2; stroke-opacity:0.1; fill:none" points="
  240.392,1486.45 240.392,123.472 
  "/>
<polyline clip-path="url(#clip262)" style="stroke:#000000; stroke-linecap:butt; stroke-linejoin:round; stroke-width:2; stroke-opacity:0.1; fill:none" points="
  758.28,1486.45 758.28,123.472 
  "/>
<polyline clip-path="url(#clip262)" style="stroke:#000000; stroke-linecap:butt; stroke-linejoin:round; stroke-width:2; stroke-opacity:0.1; fill:none" points="
  1276.17,1486.45 1276.17,123.472 
  "/>
<polyline clip-path="url(#clip262)" style="stroke:#000000; stroke-linecap:butt; stroke-linejoin:round; stroke-width:2; stroke-opacity:0.1; fill:none" points="
  1794.06,1486.45 1794.06,123.472 
  "/>
<polyline clip-path="url(#clip262)" style="stroke:#000000; stroke-linecap:butt; stroke-linejoin:round; stroke-width:2; stroke-opacity:0.1; fill:none" points="
  2311.95,1486.45 2311.95,123.472 
  "/>
<polyline clip-path="url(#clip260)" style="stroke:#000000; stroke-linecap:butt; stroke-linejoin:round; stroke-width:4; stroke-opacity:1; fill:none" points="
  178.867,1486.45 2352.76,1486.45 
  "/>
<polyline clip-path="url(#clip260)" style="stroke:#000000; stroke-linecap:butt; stroke-linejoin:round; stroke-width:4; stroke-opacity:1; fill:none" points="
  240.392,1486.45 240.392,1467.55 
  "/>
<polyline clip-path="url(#clip260)" style="stroke:#000000; stroke-linecap:butt; stroke-linejoin:round; stroke-width:4; stroke-opacity:1; fill:none" points="
  758.28,1486.45 758.28,1467.55 
  "/>
<polyline clip-path="url(#clip260)" style="stroke:#000000; stroke-linecap:butt; stroke-linejoin:round; stroke-width:4; stroke-opacity:1; fill:none" points="
  1276.17,1486.45 1276.17,1467.55 
  "/>
<polyline clip-path="url(#clip260)" style="stroke:#000000; stroke-linecap:butt; stroke-linejoin:round; stroke-width:4; stroke-opacity:1; fill:none" points="
  1794.06,1486.45 1794.06,1467.55 
  "/>
<polyline clip-path="url(#clip260)" style="stroke:#000000; stroke-linecap:butt; stroke-linejoin:round; stroke-width:4; stroke-opacity:1; fill:none" points="
  2311.95,1486.45 2311.95,1467.55 
  "/>
<path clip-path="url(#clip260)" d="M240.392 1517.37 Q236.781 1517.37 234.952 1520.93 Q233.146 1524.47 233.146 1531.6 Q233.146 1538.71 234.952 1542.27 Q236.781 1545.82 240.392 1545.82 Q244.026 1545.82 245.832 1542.27 Q247.66 1538.71 247.66 1531.6 Q247.66 1524.47 245.832 1520.93 Q244.026 1517.37 240.392 1517.37 M240.392 1513.66 Q246.202 1513.66 249.257 1518.27 Q252.336 1522.85 252.336 1531.6 Q252.336 1540.33 249.257 1544.94 Q246.202 1549.52 240.392 1549.52 Q234.582 1549.52 231.503 1544.94 Q228.447 1540.33 228.447 1531.6 Q228.447 1522.85 231.503 1518.27 Q234.582 1513.66 240.392 1513.66 Z" fill="#000000" fill-rule="evenodd" fill-opacity="1" /><path clip-path="url(#clip260)" d="M737.551 1544.91 L753.871 1544.91 L753.871 1548.85 L731.926 1548.85 L731.926 1544.91 Q734.588 1542.16 739.172 1537.53 Q743.778 1532.88 744.959 1531.53 Q747.204 1529.01 748.084 1527.27 Q748.986 1525.51 748.986 1523.82 Q748.986 1521.07 747.042 1519.33 Q745.121 1517.6 742.019 1517.6 Q739.82 1517.6 737.366 1518.36 Q734.936 1519.13 732.158 1520.68 L732.158 1515.95 Q734.982 1514.82 737.436 1514.24 Q739.889 1513.66 741.926 1513.66 Q747.297 1513.66 750.491 1516.35 Q753.686 1519.03 753.686 1523.52 Q753.686 1525.65 752.875 1527.57 Q752.088 1529.47 749.982 1532.07 Q749.403 1532.74 746.301 1535.95 Q743.199 1539.15 737.551 1544.91 Z" fill="#000000" fill-rule="evenodd" fill-opacity="1" /><path clip-path="url(#clip260)" d="M763.732 1514.29 L782.088 1514.29 L782.088 1518.22 L768.014 1518.22 L768.014 1526.7 Q769.033 1526.35 770.051 1526.19 Q771.07 1526 772.088 1526 Q777.875 1526 781.255 1529.17 Q784.634 1532.34 784.634 1537.76 Q784.634 1543.34 781.162 1546.44 Q777.69 1549.52 771.371 1549.52 Q769.195 1549.52 766.926 1549.15 Q764.681 1548.78 762.273 1548.04 L762.273 1543.34 Q764.357 1544.47 766.579 1545.03 Q768.801 1545.58 771.278 1545.58 Q775.283 1545.58 777.621 1543.48 Q779.959 1541.37 779.959 1537.76 Q779.959 1534.15 777.621 1532.04 Q775.283 1529.94 771.278 1529.94 Q769.403 1529.94 767.528 1530.35 Q765.676 1530.77 763.732 1531.65 L763.732 1514.29 Z" fill="#000000" fill-rule="evenodd" fill-opacity="1" /><path clip-path="url(#clip260)" d="M1250.87 1514.29 L1269.22 1514.29 L1269.22 1518.22 L1255.15 1518.22 L1255.15 1526.7 Q1256.17 1526.35 1257.19 1526.19 Q1258.21 1526 1259.22 1526 Q1265.01 1526 1268.39 1529.17 Q1271.77 1532.34 1271.77 1537.76 Q1271.77 1543.34 1268.3 1546.44 Q1264.83 1549.52 1258.51 1549.52 Q1256.33 1549.52 1254.06 1549.15 Q1251.82 1548.78 1249.41 1548.04 L1249.41 1543.34 Q1251.49 1544.47 1253.72 1545.03 Q1255.94 1545.58 1258.41 1545.58 Q1262.42 1545.58 1264.76 1543.48 Q1267.1 1541.37 1267.1 1537.76 Q1267.1 1534.15 1264.76 1532.04 Q1262.42 1529.94 1258.41 1529.94 Q1256.54 1529.94 1254.66 1530.35 Q1252.81 1530.77 1250.87 1531.65 L1250.87 1514.29 Z" fill="#000000" fill-rule="evenodd" fill-opacity="1" /><path clip-path="url(#clip260)" d="M1290.98 1517.37 Q1287.37 1517.37 1285.54 1520.93 Q1283.74 1524.47 1283.74 1531.6 Q1283.74 1538.71 1285.54 1542.27 Q1287.37 1545.82 1290.98 1545.82 Q1294.62 1545.82 1296.42 1542.27 Q1298.25 1538.71 1298.25 1531.6 Q1298.25 1524.47 1296.42 1520.93 Q1294.62 1517.37 1290.98 1517.37 M1290.98 1513.66 Q1296.79 1513.66 1299.85 1518.27 Q1302.93 1522.85 1302.93 1531.6 Q1302.93 1540.33 1299.85 1544.94 Q1296.79 1549.52 1290.98 1549.52 Q1285.17 1549.52 1282.09 1544.94 Q1279.04 1540.33 1279.04 1531.6 Q1279.04 1522.85 1282.09 1518.27 Q1285.17 1513.66 1290.98 1513.66 Z" fill="#000000" fill-rule="evenodd" fill-opacity="1" /><path clip-path="url(#clip260)" d="M1767.91 1514.29 L1790.13 1514.29 L1790.13 1516.28 L1777.59 1548.85 L1772.7 1548.85 L1784.51 1518.22 L1767.91 1518.22 L1767.91 1514.29 Z" fill="#000000" fill-rule="evenodd" fill-opacity="1" /><path clip-path="url(#clip260)" d="M1799.3 1514.29 L1817.66 1514.29 L1817.66 1518.22 L1803.58 1518.22 L1803.58 1526.7 Q1804.6 1526.35 1805.62 1526.19 Q1806.64 1526 1807.66 1526 Q1813.44 1526 1816.82 1529.17 Q1820.2 1532.34 1820.2 1537.76 Q1820.2 1543.34 1816.73 1546.44 Q1813.26 1549.52 1806.94 1549.52 Q1804.76 1549.52 1802.5 1549.15 Q1800.25 1548.78 1797.84 1548.04 L1797.84 1543.34 Q1799.93 1544.47 1802.15 1545.03 Q1804.37 1545.58 1806.85 1545.58 Q1810.85 1545.58 1813.19 1543.48 Q1815.53 1541.37 1815.53 1537.76 Q1815.53 1534.15 1813.19 1532.04 Q1810.85 1529.94 1806.85 1529.94 Q1804.97 1529.94 1803.1 1530.35 Q1801.25 1530.77 1799.3 1531.65 L1799.3 1514.29 Z" fill="#000000" fill-rule="evenodd" fill-opacity="1" /><path clip-path="url(#clip260)" d="M2271.55 1544.91 L2279.19 1544.91 L2279.19 1518.55 L2270.88 1520.21 L2270.88 1515.95 L2279.15 1514.29 L2283.82 1514.29 L2283.82 1544.91 L2291.46 1544.91 L2291.46 1548.85 L2271.55 1548.85 L2271.55 1544.91 Z" fill="#000000" fill-rule="evenodd" fill-opacity="1" /><path clip-path="url(#clip260)" d="M2310.9 1517.37 Q2307.29 1517.37 2305.46 1520.93 Q2303.66 1524.47 2303.66 1531.6 Q2303.66 1538.71 2305.46 1542.27 Q2307.29 1545.82 2310.9 1545.82 Q2314.54 1545.82 2316.34 1542.27 Q2318.17 1538.71 2318.17 1531.6 Q2318.17 1524.47 2316.34 1520.93 Q2314.54 1517.37 2310.9 1517.37 M2310.9 1513.66 Q2316.71 1513.66 2319.77 1518.27 Q2322.85 1522.85 2322.85 1531.6 Q2322.85 1540.33 2319.77 1544.94 Q2316.71 1549.52 2310.9 1549.52 Q2305.09 1549.52 2302.02 1544.94 Q2298.96 1540.33 2298.96 1531.6 Q2298.96 1522.85 2302.02 1518.27 Q2305.09 1513.66 2310.9 1513.66 Z" fill="#000000" fill-rule="evenodd" fill-opacity="1" /><path clip-path="url(#clip260)" d="M2341.07 1517.37 Q2337.46 1517.37 2335.63 1520.93 Q2333.82 1524.47 2333.82 1531.6 Q2333.82 1538.71 2335.63 1542.27 Q2337.46 1545.82 2341.07 1545.82 Q2344.7 1545.82 2346.51 1542.27 Q2348.33 1538.71 2348.33 1531.6 Q2348.33 1524.47 2346.51 1520.93 Q2344.7 1517.37 2341.07 1517.37 M2341.07 1513.66 Q2346.88 1513.66 2349.93 1518.27 Q2353.01 1522.85 2353.01 1531.6 Q2353.01 1540.33 2349.93 1544.94 Q2346.88 1549.52 2341.07 1549.52 Q2335.26 1549.52 2332.18 1544.94 Q2329.12 1540.33 2329.12 1531.6 Q2329.12 1522.85 2332.18 1518.27 Q2335.26 1513.66 2341.07 1513.66 Z" fill="#000000" fill-rule="evenodd" fill-opacity="1" /><polyline clip-path="url(#clip262)" style="stroke:#000000; stroke-linecap:butt; stroke-linejoin:round; stroke-width:2; stroke-opacity:0.1; fill:none" points="
  178.867,1407.2 2352.76,1407.2 
  "/>
<polyline clip-path="url(#clip262)" style="stroke:#000000; stroke-linecap:butt; stroke-linejoin:round; stroke-width:2; stroke-opacity:0.1; fill:none" points="
  178.867,1187.85 2352.76,1187.85 
  "/>
<polyline clip-path="url(#clip262)" style="stroke:#000000; stroke-linecap:butt; stroke-linejoin:round; stroke-width:2; stroke-opacity:0.1; fill:none" points="
  178.867,968.501 2352.76,968.501 
  "/>
<polyline clip-path="url(#clip262)" style="stroke:#000000; stroke-linecap:butt; stroke-linejoin:round; stroke-width:2; stroke-opacity:0.1; fill:none" points="
  178.867,749.152 2352.76,749.152 
  "/>
<polyline clip-path="url(#clip262)" style="stroke:#000000; stroke-linecap:butt; stroke-linejoin:round; stroke-width:2; stroke-opacity:0.1; fill:none" points="
  178.867,529.804 2352.76,529.804 
  "/>
<polyline clip-path="url(#clip262)" style="stroke:#000000; stroke-linecap:butt; stroke-linejoin:round; stroke-width:2; stroke-opacity:0.1; fill:none" points="
  178.867,310.455 2352.76,310.455 
  "/>
<polyline clip-path="url(#clip260)" style="stroke:#000000; stroke-linecap:butt; stroke-linejoin:round; stroke-width:4; stroke-opacity:1; fill:none" points="
  178.867,1486.45 178.867,123.472 
  "/>
<polyline clip-path="url(#clip260)" style="stroke:#000000; stroke-linecap:butt; stroke-linejoin:round; stroke-width:4; stroke-opacity:1; fill:none" points="
  178.867,1407.2 197.764,1407.2 
  "/>
<polyline clip-path="url(#clip260)" style="stroke:#000000; stroke-linecap:butt; stroke-linejoin:round; stroke-width:4; stroke-opacity:1; fill:none" points="
  178.867,1187.85 197.764,1187.85 
  "/>
<polyline clip-path="url(#clip260)" style="stroke:#000000; stroke-linecap:butt; stroke-linejoin:round; stroke-width:4; stroke-opacity:1; fill:none" points="
  178.867,968.501 197.764,968.501 
  "/>
<polyline clip-path="url(#clip260)" style="stroke:#000000; stroke-linecap:butt; stroke-linejoin:round; stroke-width:4; stroke-opacity:1; fill:none" points="
  178.867,749.152 197.764,749.152 
  "/>
<polyline clip-path="url(#clip260)" style="stroke:#000000; stroke-linecap:butt; stroke-linejoin:round; stroke-width:4; stroke-opacity:1; fill:none" points="
  178.867,529.804 197.764,529.804 
  "/>
<polyline clip-path="url(#clip260)" style="stroke:#000000; stroke-linecap:butt; stroke-linejoin:round; stroke-width:4; stroke-opacity:1; fill:none" points="
  178.867,310.455 197.764,310.455 
  "/>
<path clip-path="url(#clip260)" d="M50.9921 1407.65 L80.6679 1407.65 L80.6679 1411.58 L50.9921 1411.58 L50.9921 1407.65 Z" fill="#000000" fill-rule="evenodd" fill-opacity="1" /><path clip-path="url(#clip260)" d="M91.5706 1420.54 L99.2095 1420.54 L99.2095 1394.18 L90.8993 1395.84 L90.8993 1391.58 L99.1632 1389.92 L103.839 1389.92 L103.839 1420.54 L111.478 1420.54 L111.478 1424.48 L91.5706 1424.48 L91.5706 1420.54 Z" fill="#000000" fill-rule="evenodd" fill-opacity="1" /><path clip-path="url(#clip260)" d="M130.922 1393 Q127.311 1393 125.482 1396.56 Q123.677 1400.1 123.677 1407.23 Q123.677 1414.34 125.482 1417.9 Q127.311 1421.45 130.922 1421.45 Q134.556 1421.45 136.362 1417.9 Q138.191 1414.34 138.191 1407.23 Q138.191 1400.1 136.362 1396.56 Q134.556 1393 130.922 1393 M130.922 1389.29 Q136.732 1389.29 139.788 1393.9 Q142.867 1398.48 142.867 1407.23 Q142.867 1415.96 139.788 1420.57 Q136.732 1425.15 130.922 1425.15 Q125.112 1425.15 122.033 1420.57 Q118.978 1415.96 118.978 1407.23 Q118.978 1398.48 122.033 1393.9 Q125.112 1389.29 130.922 1389.29 Z" fill="#000000" fill-rule="evenodd" fill-opacity="1" /><path clip-path="url(#clip260)" d="M130.922 1173.65 Q127.311 1173.65 125.482 1177.21 Q123.677 1180.75 123.677 1187.88 Q123.677 1194.99 125.482 1198.55 Q127.311 1202.1 130.922 1202.1 Q134.556 1202.1 136.362 1198.55 Q138.191 1194.99 138.191 1187.88 Q138.191 1180.75 136.362 1177.21 Q134.556 1173.65 130.922 1173.65 M130.922 1169.94 Q136.732 1169.94 139.788 1174.55 Q142.867 1179.13 142.867 1187.88 Q142.867 1196.61 139.788 1201.22 Q136.732 1205.8 130.922 1205.8 Q125.112 1205.8 122.033 1201.22 Q118.978 1196.61 118.978 1187.88 Q118.978 1179.13 122.033 1174.55 Q125.112 1169.94 130.922 1169.94 Z" fill="#000000" fill-rule="evenodd" fill-opacity="1" /><path clip-path="url(#clip260)" d="M91.5706 981.845 L99.2095 981.845 L99.2095 955.48 L90.8993 957.146 L90.8993 952.887 L99.1632 951.221 L103.839 951.221 L103.839 981.845 L111.478 981.845 L111.478 985.781 L91.5706 985.781 L91.5706 981.845 Z" fill="#000000" fill-rule="evenodd" fill-opacity="1" /><path clip-path="url(#clip260)" d="M130.922 954.299 Q127.311 954.299 125.482 957.864 Q123.677 961.406 123.677 968.535 Q123.677 975.642 125.482 979.206 Q127.311 982.748 130.922 982.748 Q134.556 982.748 136.362 979.206 Q138.191 975.642 138.191 968.535 Q138.191 961.406 136.362 957.864 Q134.556 954.299 130.922 954.299 M130.922 950.596 Q136.732 950.596 139.788 955.202 Q142.867 959.785 142.867 968.535 Q142.867 977.262 139.788 981.868 Q136.732 986.452 130.922 986.452 Q125.112 986.452 122.033 981.868 Q118.978 977.262 118.978 968.535 Q118.978 959.785 122.033 955.202 Q125.112 950.596 130.922 950.596 Z" fill="#000000" fill-rule="evenodd" fill-opacity="1" /><path clip-path="url(#clip260)" d="M94.7882 762.497 L111.108 762.497 L111.108 766.432 L89.1632 766.432 L89.1632 762.497 Q91.8252 759.742 96.4085 755.113 Q101.015 750.46 102.196 749.117 Q104.441 746.594 105.321 744.858 Q106.223 743.099 106.223 741.409 Q106.223 738.654 104.279 736.918 Q102.358 735.182 99.2558 735.182 Q97.0567 735.182 94.603 735.946 Q92.1725 736.71 89.3947 738.261 L89.3947 733.539 Q92.2188 732.404 94.6724 731.826 Q97.1261 731.247 99.1632 731.247 Q104.534 731.247 107.728 733.932 Q110.922 736.617 110.922 741.108 Q110.922 743.238 110.112 745.159 Q109.325 747.057 107.219 749.65 Q106.64 750.321 103.538 753.539 Q100.436 756.733 94.7882 762.497 Z" fill="#000000" fill-rule="evenodd" fill-opacity="1" /><path clip-path="url(#clip260)" d="M130.922 734.951 Q127.311 734.951 125.482 738.516 Q123.677 742.057 123.677 749.187 Q123.677 756.293 125.482 759.858 Q127.311 763.4 130.922 763.4 Q134.556 763.4 136.362 759.858 Q138.191 756.293 138.191 749.187 Q138.191 742.057 136.362 738.516 Q134.556 734.951 130.922 734.951 M130.922 731.247 Q136.732 731.247 139.788 735.854 Q142.867 740.437 142.867 749.187 Q142.867 757.914 139.788 762.52 Q136.732 767.103 130.922 767.103 Q125.112 767.103 122.033 762.52 Q118.978 757.914 118.978 749.187 Q118.978 740.437 122.033 735.854 Q125.112 731.247 130.922 731.247 Z" fill="#000000" fill-rule="evenodd" fill-opacity="1" /><path clip-path="url(#clip260)" d="M104.927 528.449 Q108.283 529.167 110.158 531.436 Q112.057 533.704 112.057 537.037 Q112.057 542.153 108.538 544.954 Q105.02 547.755 98.5382 547.755 Q96.3623 547.755 94.0475 547.315 Q91.7558 546.898 89.3021 546.042 L89.3021 541.528 Q91.2465 542.662 93.5613 543.241 Q95.8761 543.82 98.3993 543.82 Q102.797 543.82 105.089 542.084 Q107.404 540.348 107.404 537.037 Q107.404 533.982 105.251 532.269 Q103.121 530.533 99.3021 530.533 L95.2743 530.533 L95.2743 526.69 L99.4872 526.69 Q102.936 526.69 104.765 525.324 Q106.594 523.936 106.594 521.343 Q106.594 518.681 104.696 517.269 Q102.821 515.834 99.3021 515.834 Q97.3808 515.834 95.1817 516.25 Q92.9826 516.667 90.3438 517.547 L90.3438 513.38 Q93.0058 512.639 95.3206 512.269 Q97.6585 511.899 99.7187 511.899 Q105.043 511.899 108.145 514.329 Q111.246 516.737 111.246 520.857 Q111.246 523.727 109.603 525.718 Q107.959 527.686 104.927 528.449 Z" fill="#000000" fill-rule="evenodd" fill-opacity="1" /><path clip-path="url(#clip260)" d="M130.922 515.602 Q127.311 515.602 125.482 519.167 Q123.677 522.709 123.677 529.838 Q123.677 536.945 125.482 540.51 Q127.311 544.051 130.922 544.051 Q134.556 544.051 136.362 540.51 Q138.191 536.945 138.191 529.838 Q138.191 522.709 136.362 519.167 Q134.556 515.602 130.922 515.602 M130.922 511.899 Q136.732 511.899 139.788 516.505 Q142.867 521.088 142.867 529.838 Q142.867 538.565 139.788 543.172 Q136.732 547.755 130.922 547.755 Q125.112 547.755 122.033 543.172 Q118.978 538.565 118.978 529.838 Q118.978 521.088 122.033 516.505 Q125.112 511.899 130.922 511.899 Z" fill="#000000" fill-rule="evenodd" fill-opacity="1" /><path clip-path="url(#clip260)" d="M103.608 297.249 L91.8021 315.698 L103.608 315.698 L103.608 297.249 M102.381 293.175 L108.26 293.175 L108.26 315.698 L113.191 315.698 L113.191 319.587 L108.26 319.587 L108.26 327.735 L103.608 327.735 L103.608 319.587 L88.0058 319.587 L88.0058 315.073 L102.381 293.175 Z" fill="#000000" fill-rule="evenodd" fill-opacity="1" /><path clip-path="url(#clip260)" d="M130.922 296.254 Q127.311 296.254 125.482 299.819 Q123.677 303.36 123.677 310.49 Q123.677 317.596 125.482 321.161 Q127.311 324.703 130.922 324.703 Q134.556 324.703 136.362 321.161 Q138.191 317.596 138.191 310.49 Q138.191 303.36 136.362 299.819 Q134.556 296.254 130.922 296.254 M130.922 292.55 Q136.732 292.55 139.788 297.157 Q142.867 301.74 142.867 310.49 Q142.867 319.217 139.788 323.823 Q136.732 328.406 130.922 328.406 Q125.112 328.406 122.033 323.823 Q118.978 319.217 118.978 310.49 Q118.978 301.74 122.033 297.157 Q125.112 292.55 130.922 292.55 Z" fill="#000000" fill-rule="evenodd" fill-opacity="1" /><path clip-path="url(#clip260)" d="M676.972 20.1573 L665.872 50.2555 L688.112 50.2555 L676.972 20.1573 M672.354 12.096 L681.63 12.096 L704.68 72.576 L696.173 72.576 L690.664 57.061 L663.401 57.061 L657.892 72.576 L649.264 72.576 L672.354 12.096 Z" fill="#000000" fill-rule="evenodd" fill-opacity="1" /><path clip-path="url(#clip260)" d="M743.042 49.3643 Q743.042 41.2625 739.68 36.8065 Q736.358 32.3505 730.322 32.3505 Q724.327 32.3505 720.965 36.8065 Q717.643 41.2625 717.643 49.3643 Q717.643 57.4256 720.965 61.8816 Q724.327 66.3376 730.322 66.3376 Q736.358 66.3376 739.68 61.8816 Q743.042 57.4256 743.042 49.3643 M750.496 66.9452 Q750.496 78.5308 745.351 84.1616 Q740.206 89.8329 729.593 89.8329 Q725.664 89.8329 722.18 89.2252 Q718.696 88.6581 715.415 87.4428 L715.415 80.1917 Q718.696 81.9741 721.896 82.8248 Q725.097 83.6755 728.418 83.6755 Q735.75 83.6755 739.396 79.8271 Q743.042 76.0193 743.042 68.282 L743.042 64.5957 Q740.733 68.6061 737.128 70.5911 Q733.522 72.576 728.499 72.576 Q720.154 72.576 715.05 66.2161 Q709.946 59.8562 709.946 49.3643 Q709.946 38.832 715.05 32.472 Q720.154 26.1121 728.499 26.1121 Q733.522 26.1121 737.128 28.0971 Q740.733 30.082 743.042 34.0924 L743.042 27.2059 L750.496 27.2059 L750.496 66.9452 Z" fill="#000000" fill-rule="evenodd" fill-opacity="1" /><path clip-path="url(#clip260)" d="M795.704 49.3643 Q795.704 41.2625 792.342 36.8065 Q789.02 32.3505 782.984 32.3505 Q776.989 32.3505 773.626 36.8065 Q770.305 41.2625 770.305 49.3643 Q770.305 57.4256 773.626 61.8816 Q776.989 66.3376 782.984 66.3376 Q789.02 66.3376 792.342 61.8816 Q795.704 57.4256 795.704 49.3643 M803.157 66.9452 Q803.157 78.5308 798.013 84.1616 Q792.868 89.8329 782.255 89.8329 Q778.325 89.8329 774.842 89.2252 Q771.358 88.6581 768.077 87.4428 L768.077 80.1917 Q771.358 81.9741 774.558 82.8248 Q777.758 83.6755 781.08 83.6755 Q788.412 83.6755 792.058 79.8271 Q795.704 76.0193 795.704 68.282 L795.704 64.5957 Q793.395 68.6061 789.79 70.5911 Q786.184 72.576 781.161 72.576 Q772.816 72.576 767.712 66.2161 Q762.608 59.8562 762.608 49.3643 Q762.608 38.832 767.712 32.472 Q772.816 26.1121 781.161 26.1121 Q786.184 26.1121 789.79 28.0971 Q793.395 30.082 795.704 34.0924 L795.704 27.2059 L803.157 27.2059 L803.157 66.9452 Z" fill="#000000" fill-rule="evenodd" fill-opacity="1" /><path clip-path="url(#clip260)" d="M844.801 34.1734 Q843.545 33.4443 842.046 33.1202 Q840.588 32.7556 838.805 32.7556 Q832.486 32.7556 829.083 36.8875 Q825.721 40.9789 825.721 48.6757 L825.721 72.576 L818.227 72.576 L818.227 27.2059 L825.721 27.2059 L825.721 34.2544 Q828.071 30.1225 831.838 28.1376 Q835.605 26.1121 840.993 26.1121 Q841.763 26.1121 842.694 26.2337 Q843.626 26.3147 844.76 26.5172 L844.801 34.1734 Z" fill="#000000" fill-rule="evenodd" fill-opacity="1" /><path clip-path="url(#clip260)" d="M889.604 48.0275 L889.604 51.6733 L855.333 51.6733 Q855.819 59.3701 859.951 63.421 Q864.124 67.4314 871.537 67.4314 Q875.831 67.4314 879.841 66.3781 Q883.892 65.3249 887.862 63.2184 L887.862 70.267 Q883.852 71.9684 879.639 72.8596 Q875.426 73.7508 871.091 73.7508 Q860.235 73.7508 853.875 67.4314 Q847.555 61.1119 847.555 50.3365 Q847.555 39.1965 853.551 32.6746 Q859.587 26.1121 869.795 26.1121 Q878.95 26.1121 884.257 32.0264 Q889.604 37.9003 889.604 48.0275 M882.15 45.84 Q882.069 39.7232 878.707 36.0774 Q875.385 32.4315 869.876 32.4315 Q863.637 32.4315 859.87 35.9558 Q856.143 39.4801 855.576 45.8805 L882.15 45.84 Z" fill="#000000" fill-rule="evenodd" fill-opacity="1" /><path clip-path="url(#clip260)" d="M922.457 49.7694 Q913.423 49.7694 909.939 51.8354 Q906.456 53.9013 906.456 58.8839 Q906.456 62.8538 909.048 65.2034 Q911.681 67.5124 916.178 67.5124 Q922.376 67.5124 926.102 63.1374 Q929.87 58.7219 929.87 51.4303 L929.87 49.7694 L922.457 49.7694 M937.323 46.6907 L937.323 72.576 L929.87 72.576 L929.87 65.6895 Q927.318 69.8214 923.51 71.8063 Q919.702 73.7508 914.193 73.7508 Q907.225 73.7508 903.093 69.8619 Q899.002 65.9325 899.002 59.3701 Q899.002 51.7138 904.106 47.825 Q909.251 43.9361 919.418 43.9361 L929.87 43.9361 L929.87 43.2069 Q929.87 38.0623 926.467 35.2672 Q923.105 32.4315 916.988 32.4315 Q913.099 32.4315 909.413 33.3632 Q905.726 34.295 902.324 36.1584 L902.324 29.2718 Q906.415 27.692 910.263 26.9223 Q914.112 26.1121 917.758 26.1121 Q927.601 26.1121 932.462 31.2163 Q937.323 36.3204 937.323 46.6907 Z" fill="#000000" fill-rule="evenodd" fill-opacity="1" /><path clip-path="url(#clip260)" d="M982.532 49.3643 Q982.532 41.2625 979.169 36.8065 Q975.848 32.3505 969.812 32.3505 Q963.816 32.3505 960.454 36.8065 Q957.132 41.2625 957.132 49.3643 Q957.132 57.4256 960.454 61.8816 Q963.816 66.3376 969.812 66.3376 Q975.848 66.3376 979.169 61.8816 Q982.532 57.4256 982.532 49.3643 M989.985 66.9452 Q989.985 78.5308 984.841 84.1616 Q979.696 89.8329 969.083 89.8329 Q965.153 89.8329 961.669 89.2252 Q958.186 88.6581 954.904 87.4428 L954.904 80.1917 Q958.186 81.9741 961.386 82.8248 Q964.586 83.6755 967.908 83.6755 Q975.24 83.6755 978.886 79.8271 Q982.532 76.0193 982.532 68.282 L982.532 64.5957 Q980.223 68.6061 976.617 70.5911 Q973.012 72.576 967.989 72.576 Q959.644 72.576 954.54 66.2161 Q949.436 59.8562 949.436 49.3643 Q949.436 38.832 954.54 32.472 Q959.644 26.1121 967.989 26.1121 Q973.012 26.1121 976.617 28.0971 Q980.223 30.082 982.532 34.0924 L982.532 27.2059 L989.985 27.2059 L989.985 66.9452 Z" fill="#000000" fill-rule="evenodd" fill-opacity="1" /><path clip-path="url(#clip260)" d="M1012.71 14.324 L1012.71 27.2059 L1028.06 27.2059 L1028.06 32.9987 L1012.71 32.9987 L1012.71 57.6282 Q1012.71 63.1779 1014.21 64.7578 Q1015.75 66.3376 1020.41 66.3376 L1028.06 66.3376 L1028.06 72.576 L1020.41 72.576 Q1011.78 72.576 1008.5 69.3758 Q1005.22 66.1351 1005.22 57.6282 L1005.22 32.9987 L999.748 32.9987 L999.748 27.2059 L1005.22 27.2059 L1005.22 14.324 L1012.71 14.324 Z" fill="#000000" fill-rule="evenodd" fill-opacity="1" /><path clip-path="url(#clip260)" d="M1076.67 48.0275 L1076.67 51.6733 L1042.4 51.6733 Q1042.89 59.3701 1047.02 63.421 Q1051.19 67.4314 1058.61 67.4314 Q1062.9 67.4314 1066.91 66.3781 Q1070.96 65.3249 1074.93 63.2184 L1074.93 70.267 Q1070.92 71.9684 1066.71 72.8596 Q1062.5 73.7508 1058.16 73.7508 Q1047.31 73.7508 1040.95 67.4314 Q1034.63 61.1119 1034.63 50.3365 Q1034.63 39.1965 1040.62 32.6746 Q1046.66 26.1121 1056.87 26.1121 Q1066.02 26.1121 1071.33 32.0264 Q1076.67 37.9003 1076.67 48.0275 M1069.22 45.84 Q1069.14 39.7232 1065.78 36.0774 Q1062.46 32.4315 1056.95 32.4315 Q1050.71 32.4315 1046.94 35.9558 Q1043.21 39.4801 1042.65 45.8805 L1069.22 45.84 Z" fill="#000000" fill-rule="evenodd" fill-opacity="1" /><path clip-path="url(#clip260)" d="M1152.99 45.1919 L1152.99 72.576 L1145.54 72.576 L1145.54 45.4349 Q1145.54 38.994 1143.03 35.7938 Q1140.52 32.5936 1135.49 32.5936 Q1129.46 32.5936 1125.97 36.4419 Q1122.49 40.2903 1122.49 46.9338 L1122.49 72.576 L1115 72.576 L1115 27.2059 L1122.49 27.2059 L1122.49 34.2544 Q1125.16 30.163 1128.77 28.1376 Q1132.41 26.1121 1137.15 26.1121 Q1144.97 26.1121 1148.98 30.9732 Q1152.99 35.7938 1152.99 45.1919 Z" fill="#000000" fill-rule="evenodd" fill-opacity="1" /><path clip-path="url(#clip260)" d="M1185.44 32.4315 Q1179.45 32.4315 1175.96 37.1306 Q1172.48 41.7891 1172.48 49.9314 Q1172.48 58.0738 1175.92 62.7728 Q1179.41 67.4314 1185.44 67.4314 Q1191.4 67.4314 1194.88 62.7323 Q1198.36 58.0333 1198.36 49.9314 Q1198.36 41.8701 1194.88 37.1711 Q1191.4 32.4315 1185.44 32.4315 M1185.44 26.1121 Q1195.16 26.1121 1200.71 32.4315 Q1206.26 38.7509 1206.26 49.9314 Q1206.26 61.0714 1200.71 67.4314 Q1195.16 73.7508 1185.44 73.7508 Q1175.68 73.7508 1170.13 67.4314 Q1164.62 61.0714 1164.62 49.9314 Q1164.62 38.7509 1170.13 32.4315 Q1175.68 26.1121 1185.44 26.1121 Z" fill="#000000" fill-rule="evenodd" fill-opacity="1" /><path clip-path="url(#clip260)" d="M1218.62 27.2059 L1226.07 27.2059 L1226.07 72.576 L1218.62 72.576 L1218.62 27.2059 M1218.62 9.54393 L1226.07 9.54393 L1226.07 18.9825 L1218.62 18.9825 L1218.62 9.54393 Z" fill="#000000" fill-rule="evenodd" fill-opacity="1" /><path clip-path="url(#clip260)" d="M1270.59 28.5427 L1270.59 35.5912 Q1267.43 33.9709 1264.03 33.1607 Q1260.63 32.3505 1256.98 32.3505 Q1251.43 32.3505 1248.64 34.0519 Q1245.88 35.7533 1245.88 39.156 Q1245.88 41.7486 1247.87 43.2475 Q1249.85 44.7058 1255.85 46.0426 L1258.4 46.6097 Q1266.34 48.3111 1269.66 51.4303 Q1273.02 54.509 1273.02 60.0587 Q1273.02 66.3781 1268 70.0644 Q1263.02 73.7508 1254.27 73.7508 Q1250.62 73.7508 1246.65 73.0216 Q1242.72 72.3329 1238.35 70.9151 L1238.35 63.2184 Q1242.48 65.3654 1246.49 66.4591 Q1250.5 67.5124 1254.43 67.5124 Q1259.69 67.5124 1262.53 65.73 Q1265.37 63.9071 1265.37 60.6258 Q1265.37 57.5877 1263.3 55.9673 Q1261.27 54.3469 1254.35 52.8481 L1251.75 52.2405 Q1244.83 50.7821 1241.75 47.7845 Q1238.67 44.7463 1238.67 39.4801 Q1238.67 33.0797 1243.21 29.5959 Q1247.74 26.1121 1256.09 26.1121 Q1260.22 26.1121 1263.87 26.7198 Q1267.51 27.3274 1270.59 28.5427 Z" fill="#000000" fill-rule="evenodd" fill-opacity="1" /><path clip-path="url(#clip260)" d="M1303.77 76.7889 Q1300.61 84.8907 1297.61 87.3618 Q1294.61 89.8329 1289.59 89.8329 L1283.64 89.8329 L1283.64 83.5945 L1288.01 83.5945 Q1291.09 83.5945 1292.79 82.1361 Q1294.49 80.6778 1296.56 75.2496 L1297.89 71.8468 L1279.54 27.2059 L1287.44 27.2059 L1301.62 62.6918 L1315.8 27.2059 L1323.7 27.2059 L1303.77 76.7889 Z" fill="#000000" fill-rule="evenodd" fill-opacity="1" /><path clip-path="url(#clip260)" d="M1377.94 32.4315 Q1371.94 32.4315 1368.46 37.1306 Q1364.98 41.7891 1364.98 49.9314 Q1364.98 58.0738 1368.42 62.7728 Q1371.9 67.4314 1377.94 67.4314 Q1383.9 67.4314 1387.38 62.7323 Q1390.86 58.0333 1390.86 49.9314 Q1390.86 41.8701 1387.38 37.1711 Q1383.9 32.4315 1377.94 32.4315 M1377.94 26.1121 Q1387.66 26.1121 1393.21 32.4315 Q1398.76 38.7509 1398.76 49.9314 Q1398.76 61.0714 1393.21 67.4314 Q1387.66 73.7508 1377.94 73.7508 Q1368.18 73.7508 1362.63 67.4314 Q1357.12 61.0714 1357.12 49.9314 Q1357.12 38.7509 1362.63 32.4315 Q1368.18 26.1121 1377.94 26.1121 Z" fill="#000000" fill-rule="evenodd" fill-opacity="1" /><path clip-path="url(#clip260)" d="M1443.69 49.9314 Q1443.69 41.7081 1440.28 37.0496 Q1436.92 32.3505 1431.01 32.3505 Q1425.09 32.3505 1421.69 37.0496 Q1418.33 41.7081 1418.33 49.9314 Q1418.33 58.1548 1421.69 62.8538 Q1425.09 67.5124 1431.01 67.5124 Q1436.92 67.5124 1440.28 62.8538 Q1443.69 58.1548 1443.69 49.9314 M1418.33 34.0924 Q1420.68 30.0415 1424.24 28.0971 Q1427.85 26.1121 1432.83 26.1121 Q1441.09 26.1121 1446.24 32.6746 Q1451.42 39.2371 1451.42 49.9314 Q1451.42 60.6258 1446.24 67.1883 Q1441.09 73.7508 1432.83 73.7508 Q1427.85 73.7508 1424.24 71.8063 Q1420.68 69.8214 1418.33 65.7705 L1418.33 72.576 L1410.83 72.576 L1410.83 9.54393 L1418.33 9.54393 L1418.33 34.0924 Z" fill="#000000" fill-rule="evenodd" fill-opacity="1" /><path clip-path="url(#clip260)" d="M1492.7 28.5427 L1492.7 35.5912 Q1489.54 33.9709 1486.14 33.1607 Q1482.74 32.3505 1479.09 32.3505 Q1473.54 32.3505 1470.75 34.0519 Q1467.99 35.7533 1467.99 39.156 Q1467.99 41.7486 1469.98 43.2475 Q1471.96 44.7058 1477.96 46.0426 L1480.51 46.6097 Q1488.45 48.3111 1491.77 51.4303 Q1495.13 54.509 1495.13 60.0587 Q1495.13 66.3781 1490.11 70.0644 Q1485.13 73.7508 1476.38 73.7508 Q1472.73 73.7508 1468.76 73.0216 Q1464.83 72.3329 1460.46 70.9151 L1460.46 63.2184 Q1464.59 65.3654 1468.6 66.4591 Q1472.61 67.5124 1476.54 67.5124 Q1481.81 67.5124 1484.64 65.73 Q1487.48 63.9071 1487.48 60.6258 Q1487.48 57.5877 1485.41 55.9673 Q1483.39 54.3469 1476.46 52.8481 L1473.87 52.2405 Q1466.94 50.7821 1463.86 47.7845 Q1460.78 44.7463 1460.78 39.4801 Q1460.78 33.0797 1465.32 29.5959 Q1469.86 26.1121 1478.2 26.1121 Q1482.33 26.1121 1485.98 26.7198 Q1489.62 27.3274 1492.7 28.5427 Z" fill="#000000" fill-rule="evenodd" fill-opacity="1" /><path clip-path="url(#clip260)" d="M1545.81 48.0275 L1545.81 51.6733 L1511.54 51.6733 Q1512.03 59.3701 1516.16 63.421 Q1520.33 67.4314 1527.74 67.4314 Q1532.04 67.4314 1536.05 66.3781 Q1540.1 65.3249 1544.07 63.2184 L1544.07 70.267 Q1540.06 71.9684 1535.84 72.8596 Q1531.63 73.7508 1527.3 73.7508 Q1516.44 73.7508 1510.08 67.4314 Q1503.76 61.1119 1503.76 50.3365 Q1503.76 39.1965 1509.76 32.6746 Q1515.79 26.1121 1526 26.1121 Q1535.16 26.1121 1540.46 32.0264 Q1545.81 37.9003 1545.81 48.0275 M1538.36 45.84 Q1538.28 39.7232 1534.91 36.0774 Q1531.59 32.4315 1526.08 32.4315 Q1519.84 32.4315 1516.08 35.9558 Q1512.35 39.4801 1511.78 45.8805 L1538.36 45.84 Z" fill="#000000" fill-rule="evenodd" fill-opacity="1" /><path clip-path="url(#clip260)" d="M1584.33 34.1734 Q1583.08 33.4443 1581.58 33.1202 Q1580.12 32.7556 1578.34 32.7556 Q1572.02 32.7556 1568.62 36.8875 Q1565.25 40.9789 1565.25 48.6757 L1565.25 72.576 L1557.76 72.576 L1557.76 27.2059 L1565.25 27.2059 L1565.25 34.2544 Q1567.6 30.1225 1571.37 28.1376 Q1575.14 26.1121 1580.53 26.1121 Q1581.3 26.1121 1582.23 26.2337 Q1583.16 26.3147 1584.29 26.5172 L1584.33 34.1734 Z" fill="#000000" fill-rule="evenodd" fill-opacity="1" /><path clip-path="url(#clip260)" d="M1586.8 27.2059 L1594.7 27.2059 L1608.88 65.2844 L1623.06 27.2059 L1630.96 27.2059 L1613.95 72.576 L1603.82 72.576 L1586.8 27.2059 Z" fill="#000000" fill-rule="evenodd" fill-opacity="1" /><path clip-path="url(#clip260)" d="M1661.87 49.7694 Q1652.83 49.7694 1649.35 51.8354 Q1645.87 53.9013 1645.87 58.8839 Q1645.87 62.8538 1648.46 65.2034 Q1651.09 67.5124 1655.59 67.5124 Q1661.79 67.5124 1665.51 63.1374 Q1669.28 58.7219 1669.28 51.4303 L1669.28 49.7694 L1661.87 49.7694 M1676.73 46.6907 L1676.73 72.576 L1669.28 72.576 L1669.28 65.6895 Q1666.73 69.8214 1662.92 71.8063 Q1659.11 73.7508 1653.6 73.7508 Q1646.64 73.7508 1642.5 69.8619 Q1638.41 65.9325 1638.41 59.3701 Q1638.41 51.7138 1643.52 47.825 Q1648.66 43.9361 1658.83 43.9361 L1669.28 43.9361 L1669.28 43.2069 Q1669.28 38.0623 1665.88 35.2672 Q1662.52 32.4315 1656.4 32.4315 Q1652.51 32.4315 1648.82 33.3632 Q1645.14 34.295 1641.74 36.1584 L1641.74 29.2718 Q1645.83 27.692 1649.67 26.9223 Q1653.52 26.1121 1657.17 26.1121 Q1667.01 26.1121 1671.87 31.2163 Q1676.73 36.3204 1676.73 46.6907 Z" fill="#000000" fill-rule="evenodd" fill-opacity="1" /><path clip-path="url(#clip260)" d="M1699.46 14.324 L1699.46 27.2059 L1714.81 27.2059 L1714.81 32.9987 L1699.46 32.9987 L1699.46 57.6282 Q1699.46 63.1779 1700.96 64.7578 Q1702.5 66.3376 1707.16 66.3376 L1714.81 66.3376 L1714.81 72.576 L1707.16 72.576 Q1698.53 72.576 1695.25 69.3758 Q1691.97 66.1351 1691.97 57.6282 L1691.97 32.9987 L1686.5 32.9987 L1686.5 27.2059 L1691.97 27.2059 L1691.97 14.324 L1699.46 14.324 Z" fill="#000000" fill-rule="evenodd" fill-opacity="1" /><path clip-path="url(#clip260)" d="M1724.62 27.2059 L1732.07 27.2059 L1732.07 72.576 L1724.62 72.576 L1724.62 27.2059 M1724.62 9.54393 L1732.07 9.54393 L1732.07 18.9825 L1724.62 18.9825 L1724.62 9.54393 Z" fill="#000000" fill-rule="evenodd" fill-opacity="1" /><path clip-path="url(#clip260)" d="M1765.25 32.4315 Q1759.25 32.4315 1755.77 37.1306 Q1752.28 41.7891 1752.28 49.9314 Q1752.28 58.0738 1755.73 62.7728 Q1759.21 67.4314 1765.25 67.4314 Q1771.2 67.4314 1774.69 62.7323 Q1778.17 58.0333 1778.17 49.9314 Q1778.17 41.8701 1774.69 37.1711 Q1771.2 32.4315 1765.25 32.4315 M1765.25 26.1121 Q1774.97 26.1121 1780.52 32.4315 Q1786.07 38.7509 1786.07 49.9314 Q1786.07 61.0714 1780.52 67.4314 Q1774.97 73.7508 1765.25 73.7508 Q1755.48 73.7508 1749.93 67.4314 Q1744.43 61.0714 1744.43 49.9314 Q1744.43 38.7509 1749.93 32.4315 Q1755.48 26.1121 1765.25 26.1121 Z" fill="#000000" fill-rule="evenodd" fill-opacity="1" /><path clip-path="url(#clip260)" d="M1836.14 45.1919 L1836.14 72.576 L1828.68 72.576 L1828.68 45.4349 Q1828.68 38.994 1826.17 35.7938 Q1823.66 32.5936 1818.64 32.5936 Q1812.6 32.5936 1809.12 36.4419 Q1805.63 40.2903 1805.63 46.9338 L1805.63 72.576 L1798.14 72.576 L1798.14 27.2059 L1805.63 27.2059 L1805.63 34.2544 Q1808.31 30.163 1811.91 28.1376 Q1815.56 26.1121 1820.3 26.1121 Q1828.12 26.1121 1832.13 30.9732 Q1836.14 35.7938 1836.14 45.1919 Z" fill="#000000" fill-rule="evenodd" fill-opacity="1" /><path clip-path="url(#clip260)" d="M1879.93 28.5427 L1879.93 35.5912 Q1876.77 33.9709 1873.37 33.1607 Q1869.96 32.3505 1866.32 32.3505 Q1860.77 32.3505 1857.97 34.0519 Q1855.22 35.7533 1855.22 39.156 Q1855.22 41.7486 1857.2 43.2475 Q1859.19 44.7058 1865.18 46.0426 L1867.74 46.6097 Q1875.67 48.3111 1879 51.4303 Q1882.36 54.509 1882.36 60.0587 Q1882.36 66.3781 1877.34 70.0644 Q1872.35 73.7508 1863.6 73.7508 Q1859.96 73.7508 1855.99 73.0216 Q1852.06 72.3329 1847.68 70.9151 L1847.68 63.2184 Q1851.82 65.3654 1855.83 66.4591 Q1859.84 67.5124 1863.77 67.5124 Q1869.03 67.5124 1871.87 65.73 Q1874.7 63.9071 1874.7 60.6258 Q1874.7 57.5877 1872.64 55.9673 Q1870.61 54.3469 1863.68 52.8481 L1861.09 52.2405 Q1854.16 50.7821 1851.09 47.7845 Q1848.01 44.7463 1848.01 39.4801 Q1848.01 33.0797 1852.54 29.5959 Q1857.08 26.1121 1865.43 26.1121 Q1869.56 26.1121 1873.2 26.7198 Q1876.85 27.3274 1879.93 28.5427 Z" fill="#000000" fill-rule="evenodd" fill-opacity="1" /><polyline clip-path="url(#clip262)" style="stroke:#808080; stroke-linecap:butt; stroke-linejoin:round; stroke-width:4; stroke-opacity:1; fill:none" points="
  240.392,591.242 261.107,622.533 281.823,652.122 302.538,680.059 323.254,706.438 343.97,731.357 364.685,754.903 385.401,777.148 406.116,798.148 426.832,817.951 
  447.547,836.594 468.263,854.11 488.978,870.528 509.694,885.886 530.409,900.241 551.125,913.706 571.841,926.501 592.556,939.058 613.272,952.212 633.987,967.588 
  654.703,988.569 675.418,1024.06 696.134,1252.66 716.849,1372.32 737.565,1422.91 758.28,1447.87 778.996,1421.16 799.712,934.418 820.427,737.731 841.143,573.397 
  861.858,430.279 882.574,320.87 903.289,257.49 924.005,242.988 944.72,268.303 965.436,317.51 986.151,375.433 1006.87,432.016 1027.58,482.49 1048.3,525.605 
  1069.01,561.866 1089.73,592.366 1110.44,618.184 1131.16,640.144 1151.88,658.774 1172.59,674.338 1193.31,686.89 1214.02,696.323 1234.74,702.411 1255.45,704.855 
  1276.17,703.322 1296.88,697.502 1317.6,687.171 1338.32,672.257 1359.03,652.899 1379.75,629.495 1400.46,602.732 1421.18,573.619 1441.89,543.491 1462.61,514.013 
  1483.32,487.118 1504.04,464.855 1524.76,449.11 1545.47,441.258 1566.19,441.843 1586.9,450.462 1607.62,465.905 1628.33,486.491 1649.05,510.457 1669.76,536.257 
  1690.48,562.698 1711.2,588.947 1731.91,614.466 1752.63,638.914 1773.34,662.073 1794.06,683.776 1814.77,703.873 1835.49,722.19 1856.2,738.507 1876.92,752.538 
  1897.64,763.901 1918.35,772.106 1939.07,776.544 1959.78,776.507 1980.5,771.236 2001.21,760.026 2021.93,742.338 2042.64,717.921 2063.36,686.89 2084.08,649.766 
  2104.79,607.493 2125.51,561.487 2146.22,513.737 2166.94,466.963 2187.65,424.714 2208.37,391.143 2229.08,370.202 2249.8,364.421 2270.52,373.903 2291.23,396.249 
  
  "/>
<polyline clip-path="url(#clip262)" style="stroke:#000000; stroke-linecap:butt; stroke-linejoin:round; stroke-width:4; stroke-opacity:1; fill:none" points="
  240.392,591.708 261.107,688.195 281.823,486.958 302.538,649.033 323.254,717.72 343.97,825.818 364.685,768.291 385.401,823.152 406.116,832.941 426.832,716.924 
  447.547,796.83 468.263,766.986 488.978,893.609 509.694,813.821 530.409,860.101 551.125,949.768 571.841,850.662 592.556,1112.56 613.272,933.687 633.987,1134.31 
  654.703,938.335 675.418,981.022 696.134,1193.06 716.849,1339.45 737.565,1378.11 758.28,1325.06 778.996,1432.82 799.712,943.407 820.427,887.487 841.143,431.363 
  861.858,495.579 882.574,467.595 903.289,310.37 924.005,325.667 944.72,302.928 965.436,162.047 986.151,269.399 1006.87,382.731 1027.58,494.841 1048.3,626.862 
  1069.01,419.805 1089.73,602.458 1110.44,626.99 1131.16,728.104 1151.88,708.311 1172.59,573.409 1193.31,684.117 1214.02,706.184 1234.74,725.172 1255.45,600.32 
  1276.17,669.604 1296.88,723.846 1317.6,598.842 1338.32,648.174 1359.03,730.942 1379.75,654.584 1400.46,599.542 1421.18,633.284 1441.89,639.08 1462.61,574.158 
  1483.32,534.34 1504.04,448.653 1524.76,480.607 1545.47,367.572 1566.19,599.199 1586.9,412.467 1607.62,381.863 1628.33,469.58 1649.05,482.461 1669.76,561.188 
  1690.48,468.931 1711.2,597.756 1731.91,583.914 1752.63,606.513 1773.34,602.746 1794.06,685.057 1814.77,715.083 1835.49,785.589 1856.2,813.144 1876.92,792.308 
  1897.64,708.63 1918.35,791.611 1939.07,662.837 1959.78,898.023 1980.5,804.174 2001.21,796.437 2021.93,651.176 2042.64,692.867 2063.36,787.322 2084.08,618.051 
  2104.79,591.393 2125.51,769.097 2146.22,430.2 2166.94,427.569 2187.65,467.458 2208.37,356.202 2229.08,559.092 2249.8,435.847 2270.52,283.809 2291.23,312.02 
  
  "/>
<path clip-path="url(#clip260)" d="
M1738.61 272.585 L2280.29 272.585 L2280.29 168.905 L1738.61 168.905  Z
  " fill="#ffffff" fill-rule="evenodd" fill-opacity="1"/>
<polyline clip-path="url(#clip260)" style="stroke:#000000; stroke-linecap:butt; stroke-linejoin:round; stroke-width:4; stroke-opacity:1; fill:none" points="
  1738.61,272.585 2280.29,272.585 2280.29,168.905 1738.61,168.905 1738.61,272.585 
  "/>
<polyline clip-path="url(#clip260)" style="stroke:#000000; stroke-linecap:butt; stroke-linejoin:round; stroke-width:4; stroke-opacity:1; fill:none" points="
  1762.77,220.745 1907.69,220.745 
  "/>
<path clip-path="url(#clip260)" d="M1943.75 215.085 Q1940.32 215.085 1938.33 217.77 Q1936.34 220.432 1936.34 225.085 Q1936.34 229.738 1938.31 232.423 Q1940.3 235.085 1943.75 235.085 Q1947.15 235.085 1949.14 232.4 Q1951.13 229.715 1951.13 225.085 Q1951.13 220.478 1949.14 217.793 Q1947.15 215.085 1943.75 215.085 M1943.75 211.474 Q1949.3 211.474 1952.47 215.085 Q1955.64 218.696 1955.64 225.085 Q1955.64 231.451 1952.47 235.085 Q1949.3 238.696 1943.75 238.696 Q1938.17 238.696 1935 235.085 Q1931.85 231.451 1931.85 225.085 Q1931.85 218.696 1935 215.085 Q1938.17 211.474 1943.75 211.474 Z" fill="#000000" fill-rule="evenodd" fill-opacity="1" /><path clip-path="url(#clip260)" d="M1981.31 225.085 Q1981.31 220.386 1979.37 217.724 Q1977.45 215.039 1974.07 215.039 Q1970.69 215.039 1968.74 217.724 Q1966.82 220.386 1966.82 225.085 Q1966.82 229.784 1968.74 232.469 Q1970.69 235.131 1974.07 235.131 Q1977.45 235.131 1979.37 232.469 Q1981.31 229.784 1981.31 225.085 M1966.82 216.034 Q1968.17 213.719 1970.2 212.608 Q1972.26 211.474 1975.11 211.474 Q1979.83 211.474 1982.77 215.224 Q1985.74 218.974 1985.74 225.085 Q1985.74 231.196 1982.77 234.946 Q1979.83 238.696 1975.11 238.696 Q1972.26 238.696 1970.2 237.585 Q1968.17 236.451 1966.82 234.136 L1966.82 238.025 L1962.54 238.025 L1962.54 202.006 L1966.82 202.006 L1966.82 216.034 Z" fill="#000000" fill-rule="evenodd" fill-opacity="1" /><path clip-path="url(#clip260)" d="M2009.32 212.863 L2009.32 216.891 Q2007.52 215.965 2005.57 215.502 Q2003.63 215.039 2001.55 215.039 Q1998.37 215.039 1996.78 216.011 Q1995.2 216.983 1995.2 218.928 Q1995.2 220.409 1996.34 221.265 Q1997.47 222.099 2000.9 222.863 L2002.36 223.187 Q2006.89 224.159 2008.79 225.941 Q2010.71 227.701 2010.71 230.872 Q2010.71 234.483 2007.84 236.589 Q2004.99 238.696 1999.99 238.696 Q1997.91 238.696 1995.64 238.279 Q1993.4 237.886 1990.9 237.076 L1990.9 232.677 Q1993.26 233.904 1995.55 234.529 Q1997.84 235.131 2000.09 235.131 Q2003.1 235.131 2004.72 234.113 Q2006.34 233.071 2006.34 231.196 Q2006.34 229.46 2005.16 228.534 Q2004 227.608 2000.04 226.752 L1998.56 226.404 Q1994.6 225.571 1992.84 223.858 Q1991.08 222.122 1991.08 219.113 Q1991.08 215.455 1993.68 213.465 Q1996.27 211.474 2001.04 211.474 Q2003.4 211.474 2005.48 211.821 Q2007.56 212.168 2009.32 212.863 Z" fill="#000000" fill-rule="evenodd" fill-opacity="1" /><path clip-path="url(#clip260)" d="M2039.67 223.997 L2039.67 226.08 L2020.09 226.08 Q2020.37 230.478 2022.73 232.793 Q2025.11 235.085 2029.35 235.085 Q2031.8 235.085 2034.09 234.483 Q2036.41 233.881 2038.68 232.677 L2038.68 236.705 Q2036.38 237.677 2033.98 238.187 Q2031.57 238.696 2029.09 238.696 Q2022.89 238.696 2019.25 235.085 Q2015.64 231.474 2015.64 225.316 Q2015.64 218.951 2019.07 215.224 Q2022.52 211.474 2028.35 211.474 Q2033.58 211.474 2036.61 214.853 Q2039.67 218.21 2039.67 223.997 M2035.41 222.747 Q2035.36 219.252 2033.44 217.168 Q2031.55 215.085 2028.4 215.085 Q2024.83 215.085 2022.68 217.099 Q2020.55 219.113 2020.23 222.77 L2035.41 222.747 Z" fill="#000000" fill-rule="evenodd" fill-opacity="1" /><path clip-path="url(#clip260)" d="M2061.68 216.08 Q2060.97 215.664 2060.11 215.478 Q2059.28 215.27 2058.26 215.27 Q2054.65 215.27 2052.7 217.631 Q2050.78 219.969 2050.78 224.367 L2050.78 238.025 L2046.5 238.025 L2046.5 212.099 L2050.78 212.099 L2050.78 216.127 Q2052.12 213.766 2054.28 212.631 Q2056.43 211.474 2059.51 211.474 Q2059.95 211.474 2060.48 211.543 Q2061.01 211.59 2061.66 211.705 L2061.68 216.08 Z" fill="#000000" fill-rule="evenodd" fill-opacity="1" /><path clip-path="url(#clip260)" d="M2063.1 212.099 L2067.61 212.099 L2075.71 233.858 L2083.81 212.099 L2088.33 212.099 L2078.61 238.025 L2072.82 238.025 L2063.1 212.099 Z" fill="#000000" fill-rule="evenodd" fill-opacity="1" /><path clip-path="url(#clip260)" d="M2105.99 224.992 Q2100.83 224.992 2098.84 226.173 Q2096.85 227.353 2096.85 230.201 Q2096.85 232.469 2098.33 233.812 Q2099.83 235.131 2102.4 235.131 Q2105.94 235.131 2108.07 232.631 Q2110.23 230.108 2110.23 225.941 L2110.23 224.992 L2105.99 224.992 M2114.48 223.233 L2114.48 238.025 L2110.23 238.025 L2110.23 234.089 Q2108.77 236.451 2106.59 237.585 Q2104.42 238.696 2101.27 238.696 Q2097.29 238.696 2094.92 236.474 Q2092.59 234.228 2092.59 230.478 Q2092.59 226.103 2095.5 223.881 Q2098.44 221.659 2104.25 221.659 L2110.23 221.659 L2110.23 221.242 Q2110.23 218.303 2108.28 216.705 Q2106.36 215.085 2102.86 215.085 Q2100.64 215.085 2098.54 215.617 Q2096.43 216.15 2094.49 217.215 L2094.49 213.279 Q2096.82 212.377 2099.02 211.937 Q2101.22 211.474 2103.3 211.474 Q2108.93 211.474 2111.71 214.391 Q2114.48 217.307 2114.48 223.233 Z" fill="#000000" fill-rule="evenodd" fill-opacity="1" /><path clip-path="url(#clip260)" d="M2127.47 204.738 L2127.47 212.099 L2136.24 212.099 L2136.24 215.409 L2127.47 215.409 L2127.47 229.483 Q2127.47 232.654 2128.33 233.557 Q2129.21 234.46 2131.87 234.46 L2136.24 234.46 L2136.24 238.025 L2131.87 238.025 Q2126.94 238.025 2125.06 236.196 Q2123.19 234.344 2123.19 229.483 L2123.19 215.409 L2120.06 215.409 L2120.06 212.099 L2123.19 212.099 L2123.19 204.738 L2127.47 204.738 Z" fill="#000000" fill-rule="evenodd" fill-opacity="1" /><path clip-path="url(#clip260)" d="M2141.85 212.099 L2146.11 212.099 L2146.11 238.025 L2141.85 238.025 L2141.85 212.099 M2141.85 202.006 L2146.11 202.006 L2146.11 207.4 L2141.85 207.4 L2141.85 202.006 Z" fill="#000000" fill-rule="evenodd" fill-opacity="1" /><path clip-path="url(#clip260)" d="M2165.06 215.085 Q2161.64 215.085 2159.65 217.77 Q2157.66 220.432 2157.66 225.085 Q2157.66 229.738 2159.62 232.423 Q2161.61 235.085 2165.06 235.085 Q2168.47 235.085 2170.46 232.4 Q2172.45 229.715 2172.45 225.085 Q2172.45 220.478 2170.46 217.793 Q2168.47 215.085 2165.06 215.085 M2165.06 211.474 Q2170.62 211.474 2173.79 215.085 Q2176.96 218.696 2176.96 225.085 Q2176.96 231.451 2173.79 235.085 Q2170.62 238.696 2165.06 238.696 Q2159.48 238.696 2156.31 235.085 Q2153.17 231.451 2153.17 225.085 Q2153.17 218.696 2156.31 215.085 Q2159.48 211.474 2165.06 211.474 Z" fill="#000000" fill-rule="evenodd" fill-opacity="1" /><path clip-path="url(#clip260)" d="M2205.57 222.377 L2205.57 238.025 L2201.31 238.025 L2201.31 222.515 Q2201.31 218.835 2199.88 217.006 Q2198.44 215.178 2195.57 215.178 Q2192.12 215.178 2190.13 217.377 Q2188.14 219.576 2188.14 223.372 L2188.14 238.025 L2183.86 238.025 L2183.86 212.099 L2188.14 212.099 L2188.14 216.127 Q2189.67 213.789 2191.73 212.631 Q2193.81 211.474 2196.52 211.474 Q2200.99 211.474 2203.28 214.252 Q2205.57 217.006 2205.57 222.377 Z" fill="#000000" fill-rule="evenodd" fill-opacity="1" /><path clip-path="url(#clip260)" d="M2230.6 212.863 L2230.6 216.891 Q2228.79 215.965 2226.85 215.502 Q2224.9 215.039 2222.82 215.039 Q2219.65 215.039 2218.05 216.011 Q2216.48 216.983 2216.48 218.928 Q2216.48 220.409 2217.61 221.265 Q2218.74 222.099 2222.17 222.863 L2223.63 223.187 Q2228.16 224.159 2230.06 225.941 Q2231.98 227.701 2231.98 230.872 Q2231.98 234.483 2229.11 236.589 Q2226.27 238.696 2221.27 238.696 Q2219.18 238.696 2216.91 238.279 Q2214.67 237.886 2212.17 237.076 L2212.17 232.677 Q2214.53 233.904 2216.82 234.529 Q2219.11 235.131 2221.36 235.131 Q2224.37 235.131 2225.99 234.113 Q2227.61 233.071 2227.61 231.196 Q2227.61 229.46 2226.43 228.534 Q2225.27 227.608 2221.31 226.752 L2219.83 226.404 Q2215.87 225.571 2214.11 223.858 Q2212.35 222.122 2212.35 219.113 Q2212.35 215.455 2214.95 213.465 Q2217.54 211.474 2222.31 211.474 Q2224.67 211.474 2226.75 211.821 Q2228.84 212.168 2230.6 212.863 Z" fill="#000000" fill-rule="evenodd" fill-opacity="1" /></svg>
